<?xml version="1.0" encoding="UTF-8"?><svg id="a" xmlns="http://www.w3.org/2000/svg" viewBox="0 0 1366 768"><path d="M255,553c-1.47,1.5-11.63-7.14-14.71-7.79-5.87-1.24-16.34-.74-22.8-1.2-5.39-.39-12.79-2.08-17.99-2.1-9.75-.04-24.21,6-34.53,6.56l-8.97,4.53v-165.5c0-.72,7.54-10.68,8.71-11.29,12.49-1.86,26.19-5.82,38.8-5.22,8.42.4,23.75,1.53,31.78,3.22,1.64.35,19.71,8.2,19.71,9.29v169.5ZM215.76,382.18c-12.7,1.92-4.45,17.01,5.17,11.24,6.89-4.13,1.17-12.2-5.17-11.24ZM213.7,449.21c-8.94,2.03-3.18,14.98,6.04,11.03,8.07-3.46,4.49-13.42-6.04-11.03ZM215.76,518.18c-12.7,1.92-4.45,17.01,5.17,11.24,6.89-4.13,1.17-12.2-5.17-11.24Z" style="fill:#fff;"/><path d="M280,426c2.45-.97,10,.9,10,3.5v102.5c3.28-.23,5.19-4.78,7.03-7.26.5-.68,1.49-.77,1.96-1.45.8-1.15,1.76-4.89,2.14-5.16.99-.7,4.38.26,4.87-.15.17-.15-.96-2.72-1.05-4.44-1.66-31.1,1.31-63.74.1-95.01.77-4.08,4.5-7.73,8.67-5.8.75.35,3.28,2.34,3.28,2.75v101.5c0,.33,5.72,1.09,6.5,1.09,4.26,0,21.15-1.27,24.84-2.09.74-.16.56-1.53,1.38-1.95,1.27-.65,5.05-.86,5.28-1.05.21-.18-.98-4.02-1.06-5.44-1.75-31.44,1.47-64.49,0-96.11,1.63-7.96,10.43-8.04,12.11,0-1.42,31.98,1.69,65.29,0,97.1-.09,1.73-1.23,4.3-1.05,4.44.27.22,2.28-.23,3.32,0,.8.18.6,1.53,1.41,1.95,1.57.82,25.82,3.53,27.62,3.08,1.05-.26.81-2.44,2.27-2.91,1.19-.39,4.39.1,4.39-.12v-101.5c0-.41,2.53-2.4,3.28-2.75,4.17-1.93,7.9,1.72,8.67,5.8-1.21,31.27,1.75,63.9.1,95.01-.09,1.72-1.24,4.3-1.06,4.44s2.7-.23,4.57.94c3.01,1.89,2.69,6.19,5.04,7.96,2.52,1.9,8.25,4.6,11.4,4.1v-97.5c0-2.94,3.47-5.54,6.5-5.55,4.55-.03,5.35,2.78,6.46,6.6v97.01c-.37,2.76,2.61,3.48,3.04,5.95.89,5.03-.91,10.49-1.01,15.5-2.84-1.06-3.85-5.98-6.68-6.81-3.24-.96-7.95.4-11.61-.39-.87-.19-12.18-4.86-12.73-5.27-1.67-1.23-.24-4.1-1.6-4.57-2.8-.98-8.9-2.34-11.65-1.76-1.85.39-3.72,2.39-5.35,2.55-5.87.59-19.16-2.11-25.86-2.76-2.3-.22-4.85.36-7.03.03-3.18-.49-3.84-5.74-5.15-6.05s-8.27-.25-9.77-.01c-1.07.17-.49,5.86-2.19,6.1l-47.37,3.95c-.36,1.67.59,5.84-.14,6.86s-13.25,5.72-15.45,6.04c-2.51.37-5.47-.4-7.73.27-1.76.53-2.13,2.8-4.17,2.83-.56,0-3.6-9.38-3.58-10.54.03-2.01,2.76-5.93,4.08-7.76.55-.76,2.05-.61,2.03-1.27-.04-1.21-1.05-2.88-1.1-4.88-.82-32.47.73-65.08.06-97.55,1.33-.86.67-2.54,2-4Z" style="fill:#fff;"/><path d="M736,346l70.59-175.06,19.3.17,70.11,174.89h-23l-20.97-52.53c-23.88-.78-48.09-.78-72.06,0l-20.97,52.53h-23ZM844,274l-27.01-75c-1.45.25-1.97,1.83-2.5,2.99-4.8,10.58-8.51,24.09-12.73,35.26-4.6,12.18-10.48,24.17-13.76,36.74h56Z" style="fill:#fff;"/><path d="M1173,475v15c-15.41-4.22-30.7-6.63-44.95,2.55-13.56,8.74-22.63,31.28-24.06,46.95-.13,1.45-.51,3.07,1.48,2.48,1.64-.49,4.43-2.64,6.54-3.47,42.21-16.67,79.79,10.49,67.52,56.52-9.32,34.95-58.17,43.56-80.52,16.46-25.29-30.67-17.4-101.61,12.5-127.47,17.54-15.17,40.13-16.03,61.48-9.02ZM1103.14,559.13c-1.84,21.08,6.5,54.37,33.35,52.89,21.7-1.2,30.45-24.5,25.25-43.25-7.17-25.82-40.73-20.19-58.6-9.63Z" style="fill:#fff;"/><polygon points="945 171 945 327 1030 327 1030 346 923 346 923 171 945 171" style="fill:#fff;"/><polygon points="1084 171 1084 327 1169 327 1169 346 1062 346 1062 171 1084 171" style="fill:#fff;"/><path d="M891.77,514.27c42.26-5.03,60.61,28.08,57.13,66.13-3.19,34.83-35.67,56.85-68.89,43.09-43.3-17.93-38.05-103.28,11.76-109.22ZM896.77,529.28c-27.99,3.12-31.89,42.86-23.26,63.71,11.57,27.93,47.67,24.07,55.01-4.97,3.9-15.4,3-36.78-7.54-49.51-5.6-6.77-15.57-10.2-24.22-9.24Z" style="fill:#fff;"/><path d="M598,210.5c.54-6.62,2.85-16.87,6.19-22.81,12.29-21.83,44.67-20.52,55.54,2.08.92,1.92,3.98,12.22,4.77,12.21l44.17-30.81c.81-.76,3.83-1.67,4.33-1.17s.29,11.99-.93,13.56c-4.63,5.17-46.07,32.04-46.07,34.93v15.5h45.5c2.26,0,2.26,15,0,15h-112c-.11,0-1.5-1.39-1.5-1.5,0-11.77-.93-25.53,0-37ZM612.5,235h39c3.33,0,.64-14.12.49-16.49-.59-9.63.78-19.2-7.49-26.51-6.9-6.1-21.5-5.8-27.52,1.48-5.91,7.14-4.43,14.76-4.97,23.03-.13,1.96-.96,3.77-1.06,5.94-.11,2.46-.65,11.97,1.55,12.55Z" style="fill:#fff;"/><path d="M746,523.5c.86-3.06,21.9-8.79,25.77-9.23,52.67-6.06,68.05,37.01,32.25,71.25l-29.02,22.48h57v16h-87l.49-12.01c10.94-8.34,22.52-16.08,33-25,12.45-10.59,36.77-33.56,21.96-50.94-11.73-13.76-40.42-3.54-54.45,1.95.7-3.93-.96-11.09,0-14.5Z" style="fill:#fff;"/><path d="M973,523.5c.86-3.06,21.9-8.79,25.77-9.23,52.67-6.06,68.05,37.01,32.25,71.25l-29.02,22.48h57v16h-87l.49-12.01c10.94-8.34,22.52-16.08,33-25,12.45-10.59,36.77-33.56,21.96-50.94-11.73-13.76-40.42-3.54-54.45,1.95.7-3.93-.96-11.09,0-14.5Z" style="fill:#fff;"/><path d="M612,607h35v-47.5c0-2.25,14-2.25,14,0v47.5h38v-56.5c0-2.25,14-2.25,14,0v70c0,.11-1.39,1.5-1.5,1.5h-112c-.11,0-1.5-1.39-1.5-1.5v-67c0-2.25,14-2.25,14,0v53.5Z" style="fill:#fff;"/><path d="M712,308v16c0,.21-2.46.85-3.72,1.77-14.31,10.39-29.44,19.81-43.27,30.73l46.99,33v15.5l-57.5-39.71-55.5,36.71v-14.5l45-31.01c.49-1.98-.69-1.3-1.28-1.75-13.85-10.62-30.06-19.2-43.73-30.25v-14.5c1.65-.35,2.29.24,3.53.97,15.7,9.3,31.63,22.63,47.15,32.85,1.3.86,4.38,3.35,5.68,3.05l56.64-38.88Z" style="fill:#fff;"/></svg>
