<?xml version="1.0" encoding="UTF-8"?><svg id="a" xmlns="http://www.w3.org/2000/svg" viewBox="0 0 499.04 322.04"><path d="M128.01,193.73c.9-1.96,1.65-4.07,2.56-6.63.9-2.41,1.81-5.42,2.56-8.89l9.2-39.8c.75-4.07,1.35-7.09,1.51-8.89.3-1.36.3-2.86.3-4.82v-1.81h20.8l-12.51,55.32c-.91,3.92-1.5,6.93-1.81,9.04-.45,2.26-.45,4.37-.45,6.48h-22.15Z" style="fill:#fff;"/><path d="M403.4,0c-13.37,0-24.2,10.84-24.2,24.2,0,4.19,1.06,8.12,2.93,11.56-2.41,1.2-8.02,4.02-15.88,8.1-2.93-6-9.06-10.14-16.18-10.14-9.95,0-18.02,8.07-18.02,18.02,0,3.32.92,6.43,2.49,9.1-4.04,2.23-8.24,4.57-12.54,7-2.53-3.85-6.88-6.4-11.83-6.4-7.82,0-14.16,6.34-14.16,14.16,0,2.32.57,4.49,1.55,6.42-4.45,2.66-8.94,5.38-13.43,8.15-1.8-1.52-4.13-2.45-6.67-2.45-5.71,0-10.34,4.63-10.34,10.34,0,.92.13,1.8.36,2.65-18.1,11.76-35.41,24.08-49.44,36.05-16.35-36.57-40.47-76.7-74.03-109.38-.03-.03-.06-.06-.1-.1-3.93-3.87-7.18-2.16-2.67,2.66.06.06.11.12.17.19,28.49,30.65,50.86,75.01,66.11,115.46-57.85,49.4-121.62,145.12-51.73,175.19,10.18,4.38,14.82-3.99,10.44-6.57-.79-.46-31.92-17.29-12.13-68.99h49.81c2.67,0,4.83-2.16,4.83-4.83s-2.16-4.83-4.83-4.83h-45.68c2.67-5.72,5.93-11.81,9.86-18.29h35.82c2.67,0,4.83-2.16,4.83-4.83s-2.16-4.83-4.83-4.83h-29.66c3.7-5.53,7.85-11.32,12.51-17.39h17.15c2.67,0,4.83-2.16,4.83-4.83s-2.16-4.83-4.83-4.83h-9.49c5.41-6.61,11.38-13.52,17.99-20.74.06-.06.11-.13.17-.19,13.14,38.04,19.48,70.48,18.09,81.3-.76,5.89-4.56,8.35-6.08,9.07-2.45,1.16-3.45,4.54.39,5.67,12.24,3.61,19.77-8.54,21.13-18.29,1.37-9.83-5.33-45.84-23-88.76,14.77-14.69,31.81-28.72,49.18-41.58,1.52.88,3.28,1.39,5.16,1.39,5.71,0,10.34-4.63,10.34-10.34,0-.7-.07-1.37-.2-2.03,4.62-3.22,9.21-6.35,13.76-9.37,2.42,1.93,5.48,3.09,8.81,3.09,7.82,0,14.16-6.34,14.16-14.16,0-1.18-.16-2.31-.43-3.4,4.53-2.81,8.93-5.49,13.16-8.02,3.28,3.43,7.89,5.58,13.02,5.58,9.95,0,18.02-8.07,18.02-18.02,0-1.75-.26-3.44-.73-5.04,7.69-4.28,13.3-7.31,16.04-8.87,4.36,6.39,11.69,10.58,20,10.58,13.37,0,24.2-10.84,24.2-24.2S416.77,0,403.4,0Z" style="fill:#ee7601;"/><path d="M76.13,193.73H14.47c-6.18,0-10.39-1.36-12.67-4.22-1.2-1.65-1.81-3.91-1.81-6.78,0-2.11.3-4.67,1.05-7.69l7.69-33.46c1.65-6.78,4.06-11.61,7.38-14.48,3.46-2.86,8.14-4.22,14.47-4.22h45.52c6.48,0,10.7,1.36,12.81,4.22,1.36,1.66,1.97,3.93,1.97,6.94,0,2.27-.31,4.67-1.06,7.54l-4.98,22.17H22.91l-3.32,14.47c-.3,1.5-.45,2.72-.45,3.47s0,1.36.31,1.65c.44.91,1.8,1.36,3.92,1.36h45.21c4.38,0,8.44-.45,11.76-1.2l-4.22,10.24ZM71.3,138.4c.45-1.36.6-2.72.6-3.62,0-.6-.15-1.05-.3-1.51-.61-.9-2.11-1.35-4.22-1.35h-31.96c-2.1,0-3.62.45-4.52,1.35-1.05.91-1.8,2.57-2.11,5.13l-3.77,16.28h42.51l3.77-16.28Z" style="fill:#fff;"/><path d="M91.49,193.73c.96-2.19,1.76-4.56,2.72-7.43.96-2.71,1.92-6.08,2.72-9.98l15.84-73.34c.96-4.57,1.6-7.95,1.91-9.97.16-1.86.32-4.39.32-7.44h22.07l-19.67,90.75c-.95,4.4-1.6,7.78-1.92,10.15-.48,2.53-.48,4.9-.48,7.27h-23.51Z" style="fill:#fff;"/><path d="M345.83,134.79c-2.27-.15-4.52-.3-7.09-.3h-10.1c-1.95,0-3.61.45-4.52,1.2-1.21.91-1.96,2.41-2.56,4.67l-8.44,37.84c-1.51,5.88-2.11,10.4-2.11,13.87v1.66h-22.01c.9-2.26,1.81-4.38,2.41-6.48.6-1.96,1.36-4.98,2.41-9.04l9.04-39.8c1.06-3.92,1.51-6.93,1.97-9.19.3-2.12.3-4.22.3-6.33h18.54l-.75,7.23c1.21-2.4,2.71-4.21,4.67-5.42,1.96-1.21,4.52-1.81,7.98-1.81h18.1l4.36,7.83c-.9.76-1.65,1.67-2.56,2.87-1.05,1.36-1.8,1.96-2.26,1.96-2.71-.3-5.13-.6-7.39-.75Z" style="fill:#fff;"/><path d="M248.29,193.73c.9-1.96,1.65-4.07,2.55-6.63.91-2.41,1.81-5.42,2.56-8.89l9.2-39.8c.75-4.07,1.35-7.09,1.5-8.89.31-1.36.31-2.86.31-4.82v-1.81h20.8l-12.51,55.32c-.9,3.92-1.51,6.93-1.81,9.04-.46,2.26-.46,4.37-.46,6.48h-22.15Z" style="fill:#fff;"/><path d="M168.43,98.1c0,5.63-4.57,10.2-10.2,10.2s-10.21-4.57-10.21-10.2,4.57-10.21,10.21-10.21,10.2,4.57,10.2,10.21Z" style="fill:#fff;"/><path d="M259.54,313.83c4.21,0,6.44-.66,8.43-1.25l-3.88,9.08h-41.63c1.35-1.85,2.38-3.62,3.5-8.12l7.72-31c1.12-4.5.97-6.27.54-8.12h40.89l-.78,9.08c-1.77-.59-3.67-1.25-7.88-1.25h-14.69l-2.76,11.07h12.84c4.13,0,6.37-.66,8.43-1.25l-2.57,10.33c-1.77-.59-3.67-1.25-7.81-1.25h-12.84l-3.16,12.7h15.65Z" style="fill:#fff;"/><path d="M310.13,313.91c2.08,0,5.86-.3,8.18-1.56l-3.9,9.42h-40.94c1.35-1.85,2.39-3.63,3.51-8.16l7.75-31.15c1.13-4.52.98-6.3.55-8.16h21.06c-1.35,1.85-2.39,3.63-3.51,8.16l-7.83,31.45h15.13Z" style="fill:#fff;"/><path d="M359.28,313.91c4.23,0,6.47-.67,8.47-1.26l-3.9,9.12h-41.83c1.35-1.85,2.39-3.63,3.51-8.16l7.75-31.15c1.13-4.52.98-6.3.55-8.16h41.09l-.79,9.12c-1.78-.59-3.69-1.26-7.92-1.26h-14.76l-2.77,11.13h12.91c4.15,0,6.4-.67,8.47-1.26l-2.58,10.38c-1.78-.59-3.69-1.26-7.85-1.26h-12.91l-3.18,12.76h15.72Z" style="fill:#fff;"/><path d="M389.36,308.98l-4.8,6.51c-.66.89-1.13,1.85-1.36,2.81-.4,1.63-.37,1.77.19,3.4h-13.38c3.71-3.62,4.93-4.95,7.53-8.58l26.21-36.08-1.41-2.66h21.37l6.7,40.82c.43,2.44,1.34,4.73,2.52,6.51h-23.74c1.33-1.77,1.55-2.07,1.81-3.11.28-1.11.4-2.51.22-3.55l-1.08-6.06h-20.78ZM408.98,301.14l-2.75-15.97-11.22,15.97h13.98Z" style="fill:#fff;"/><path d="M450.52,282.46c1.13-4.52.98-6.3.55-8.16h36.86c10.09,0,12.69,3.86,10.29,13.5l-5.1,20.47c-2.4,9.64-6.92,13.5-17.01,13.5h-36.86c1.35-1.85,2.39-3.63,3.51-8.16l7.75-31.15ZM460.79,313.91h9.42c2.97,0,3.58-.67,4.37-3.86l5.98-24.03c.79-3.19.51-3.86-2.45-3.86h-9.42l-7.9,31.75Z" style="fill:#fff;"/></svg>